<?xml version="1.0" encoding="utf-8"?>
<!-- Generator: Adobe Illustrator 16.0.0, SVG Export Plug-In . SVG Version: 6.00 Build 0)  -->
<!DOCTYPE svg PUBLIC "-//W3C//DTD SVG 1.1//EN" "http://www.w3.org/Graphics/SVG/1.1/DTD/svg11.dtd">
<svg version="1.1" id="Outlines" xmlns="http://www.w3.org/2000/svg" xmlns:xlink="http://www.w3.org/1999/xlink" x="0px" y="0px"
	 width="220px" height="134px" viewBox="84 51.5 220 134" enable-background="new 84 51.5 220 134" xml:space="preserve">
<g>
	
		<linearGradient id="SVGID_1_" gradientUnits="userSpaceOnUse" x1="-139.1948" y1="23.395" x2="-69.1724" y2="23.395" gradientTransform="matrix(-1 0 0 -1 93.334 131.999)">
		<stop  offset="0" style="stop-color:#00B3F0"/>
		<stop  offset="1" style="stop-color:#0083B4"/>
	</linearGradient>
	<polygon fill="url(#SVGID_1_)" points="232.462,125.487 223.396,91.721 219.681,93.795 232.406,125.433 	"/>
	
		<linearGradient id="SVGID_2_" gradientUnits="userSpaceOnUse" x1="-121.8281" y1="46.9126" x2="-118.2" y2="3.7379" gradientTransform="matrix(-1 0 0 -1 93.334 131.999)">
		<stop  offset="0" style="stop-color:#00B3F0"/>
		<stop  offset="1" style="stop-color:#0083B4"/>
	</linearGradient>
	<polygon fill="url(#SVGID_2_)" points="219.681,93.795 215.784,84.11 209.585,88.952 214.434,96.726 	"/>
	
		<linearGradient id="SVGID_3_" gradientUnits="userSpaceOnUse" x1="-132.1973" y1="46.041" x2="-129.3207" y2="11.8101" gradientTransform="matrix(-1 0 0 -1 93.334 131.999)">
		<stop  offset="0" style="stop-color:#00B3F0"/>
		<stop  offset="1" style="stop-color:#004F78"/>
	</linearGradient>
	<polygon fill="url(#SVGID_3_)" points="232.232,125.261 232.406,125.433 219.681,93.795 214.434,96.726 	"/>
	
		<linearGradient id="SVGID_4_" gradientUnits="userSpaceOnUse" x1="-105.4512" y1="63.6304" x2="-104.3627" y2="5.9438" gradientTransform="matrix(-1 0 0 -1 93.334 131.999)">
		<stop  offset="0.1101" style="stop-color:#2BC3EA"/>
		<stop  offset="1" style="stop-color:#0083B4"/>
	</linearGradient>
	<polygon fill="url(#SVGID_4_)" points="209.585,88.952 195.493,66.351 187.357,80.996 201.646,95.151 	"/>
	
		<linearGradient id="SVGID_5_" gradientUnits="userSpaceOnUse" x1="-115.2236" y1="63.4453" x2="-114.3727" y2="18.3431" gradientTransform="matrix(-1 0 0 -1 93.334 131.999)">
		<stop  offset="0" style="stop-color:#00B3F0"/>
		<stop  offset="1" style="stop-color:#005D86"/>
	</linearGradient>
	<polygon fill="url(#SVGID_5_)" points="207.272,100.724 214.434,96.726 209.585,88.952 201.646,95.151 	"/>
	
		<linearGradient id="SVGID_6_" gradientUnits="userSpaceOnUse" x1="-127.2529" y1="63.2207" x2="-126.2164" y2="8.2847" gradientTransform="matrix(-1 0 0 -1 93.334 131.999)">
		<stop  offset="0" style="stop-color:#00B3F0"/>
		<stop  offset="0.9345" style="stop-color:#081F41"/>
	</linearGradient>
	<polyline fill="url(#SVGID_6_)" points="207.272,100.724 214.434,96.726 232.232,125.261 207.272,100.724 	"/>
	
		<linearGradient id="SVGID_7_" gradientUnits="userSpaceOnUse" x1="280.1348" y1="56.2422" x2="263.2223" y2="5.5045" gradientTransform="matrix(1 0 0 -1 -96 131.999)">
		<stop  offset="0" style="stop-color:#00B3F0"/>
		<stop  offset="1" style="stop-color:#006992"/>
	</linearGradient>
	<polygon fill="url(#SVGID_7_)" points="187.357,80.996 181.793,75.484 162.515,125.708 162.517,125.708 	"/>
	
		<linearGradient id="SVGID_8_" gradientUnits="userSpaceOnUse" x1="-128.2339" y1="-4.8242" x2="-69.1082" y2="37.6157" gradientTransform="matrix(-1 0 0 -1 93.334 131.999)">
		<stop  offset="0" style="stop-color:#00B3F0"/>
		<stop  offset="0.8614" style="stop-color:#005D86"/>
	</linearGradient>
	<polygon fill="url(#SVGID_8_)" points="162.546,125.692 201.646,95.151 187.357,80.996 162.517,125.708 	"/>
	
		<linearGradient id="SVGID_9_" gradientUnits="userSpaceOnUse" x1="-127.3203" y1="-6.0981" x2="-81.8835" y2="26.5161" gradientTransform="matrix(-1 0 0 -1 93.334 131.999)">
		<stop  offset="0" style="stop-color:#00B3F0"/>
		<stop  offset="1" style="stop-color:#081F41"/>
	</linearGradient>
	<polygon fill="url(#SVGID_9_)" points="207.272,100.724 201.646,95.151 162.546,125.692 163.592,125.115 	"/>
</g>
<g>
	<path fill="#FFFFFF" d="M100.223,137.115v3.433h-8.118v3.783h7.718v3.434h-7.718v6.865h-3.909v-17.515H100.223z"/>
	<path fill="#FFFFFF" d="M125.782,152.212c-1.771,1.728-3.951,2.592-6.54,2.592c-2.59,0-4.769-0.864-6.54-2.592
		c-1.771-1.729-2.656-3.879-2.656-6.452c0-2.572,0.885-4.724,2.656-6.454c1.77-1.728,3.95-2.592,6.54-2.592
		c2.59,0,4.769,0.864,6.54,2.592c1.77,1.73,2.656,3.882,2.656,6.454C128.438,148.333,127.552,150.484,125.782,152.212z
		 M124.454,145.772c0-1.562-0.501-2.894-1.503-3.997c-1.002-1.103-2.234-1.652-3.696-1.652c-1.462,0-2.694,0.55-3.696,1.652
		c-1.003,1.104-1.504,2.435-1.504,3.997s0.501,2.891,1.504,3.983c1.002,1.095,2.234,1.642,3.696,1.642
		c1.461,0,2.694-0.547,3.696-1.642C123.953,148.663,124.454,147.334,124.454,145.772z"/>
	<path fill="#FFFFFF" d="M143.898,150.106c0.652,0.812,1.529,1.216,2.632,1.216c1.102,0,1.976-0.404,2.618-1.216
		c0.643-0.81,0.965-1.916,0.965-3.319v-9.672h3.909v9.798c0,2.539-0.702,4.488-2.105,5.85c-1.403,1.362-3.199,2.042-5.387,2.042
		c-2.189,0-3.99-0.684-5.401-2.054c-1.412-1.368-2.117-3.315-2.117-5.838v-9.798h3.909v9.673
		C142.921,148.19,143.248,149.296,143.898,150.106z"/>
	<path fill="#FFFFFF" d="M179.806,142.928c0,2.807-1.111,4.618-3.333,5.438l4.436,6.264h-4.812l-3.884-5.588h-2.706v5.588h-3.909
		v-17.515h6.64c2.723,0,4.665,0.46,5.826,1.378C179.225,139.413,179.806,140.89,179.806,142.928z M175.095,145.007
		c0.484-0.434,0.726-1.123,0.726-2.067c0-0.942-0.25-1.591-0.751-1.941s-1.378-0.524-2.631-0.524h-2.931v5.186h2.856
		C173.7,145.659,174.61,145.443,175.095,145.007z"/>
	<path fill="#FFFFFF" d="M203.397,138.681c1.228,1.043,1.842,2.647,1.842,4.811s-0.631,3.746-1.892,4.748
		c-1.262,1.002-3.188,1.504-5.776,1.504h-2.33v4.886h-3.909v-17.515h6.188C200.211,137.115,202.169,137.637,203.397,138.681z
		 M200.528,145.57c0.468-0.524,0.702-1.294,0.702-2.304s-0.306-1.729-0.916-2.156c-0.609-0.426-1.558-0.638-2.844-0.638h-2.229
		v5.889h2.631C199.175,146.361,200.061,146.097,200.528,145.57z"/>
	<path fill="#FFFFFF" d="M230.547,152.212c-1.771,1.728-3.951,2.592-6.54,2.592s-4.77-0.864-6.54-2.592
		c-1.771-1.729-2.656-3.879-2.656-6.452c0-2.572,0.886-4.724,2.656-6.454c1.771-1.728,3.951-2.592,6.54-2.592s4.77,0.864,6.54,2.592
		c1.771,1.73,2.656,3.882,2.656,6.454C233.203,148.333,232.318,150.484,230.547,152.212z M229.219,145.772
		c0-1.562-0.502-2.894-1.504-3.997c-1.002-1.103-2.234-1.652-3.696-1.652s-2.693,0.55-3.695,1.652
		c-1.003,1.104-1.504,2.435-1.504,3.997s0.5,2.891,1.504,3.983c1.002,1.095,2.233,1.642,3.695,1.642s2.694-0.547,3.696-1.642
		C228.717,148.663,229.219,147.334,229.219,145.772z"/>
	<path fill="#FFFFFF" d="M244.026,137.115h3.909v17.515h-3.909V137.115z"/>
	<path fill="#FFFFFF" d="M272.018,137.115h3.907v17.515h-3.907l-8.346-10.975v10.975h-3.909v-17.515h3.659l8.596,11.276V137.115z"/>
	<path fill="#FFFFFF" d="M295.169,140.498v14.132h-3.908v-14.132H286.3v-3.383h13.832v3.383H295.169z"/>
</g>
<g>
	<path fill="#FFFFFF" d="M191.197,162.033h5.975v1.266h-4.56v2.096h4.041v1.267h-4.041v2.164h4.617v1.267h-6.033V162.033z"/>
	<path fill="#FFFFFF" d="M210.941,162.033h1.312l4.318,5.572v-5.572h1.392v8.059h-1.184l-4.445-5.734v5.734h-1.393V162.033z"/>
	<path fill="#FFFFFF" d="M232.759,162.033h5.974v1.266h-4.558v2.096h4.04v1.267h-4.04v2.164h4.615v1.267h-6.031V162.033z"/>
	<path fill="#FFFFFF" d="M253.195,162.033h3.591c1.013,0,1.808,0.299,2.325,0.806c0.426,0.437,0.668,1.036,0.668,1.738v0.023
		c0,1.322-0.795,2.117-1.91,2.439l2.174,3.052h-1.68l-1.979-2.809h-1.772v2.809h-1.416V162.033L253.195,162.033z M256.683,166.027
		c1.013,0,1.656-0.529,1.656-1.347v-0.023c0-0.862-0.621-1.335-1.668-1.335h-2.06v2.705H256.683z"/>
	<path fill="#FFFFFF" d="M272.041,166.084v-0.022c0-2.257,1.728-4.168,4.156-4.168c1.403,0,2.269,0.393,3.096,1.093l-0.898,1.071
		c-0.621-0.529-1.23-0.861-2.256-0.861c-1.484,0-2.612,1.3-2.612,2.841v0.024c0,1.657,1.094,2.878,2.739,2.878
		c0.762,0,1.452-0.242,1.946-0.61v-1.508h-2.061v-1.231h3.43v3.385c-0.794,0.678-1.934,1.254-3.362,1.254
		C273.697,170.229,272.041,168.433,272.041,166.084z"/>
	<path fill="#FFFFFF" d="M294.33,166.914l-3.201-4.881h1.682l2.243,3.558l2.278-3.558h1.624l-3.2,4.847v3.212h-1.428v-3.178H294.33z
		"/>
</g>
<linearGradient id="SVGID_10_" gradientUnits="userSpaceOnUse" x1="303.2725" y1="31.2754" x2="303.2725" y2="31.2754" gradientTransform="matrix(1 0 0 -1 -96 131.999)">
	<stop  offset="0" style="stop-color:#00B3F0"/>
	<stop  offset="0.9345" style="stop-color:#081F41"/>
</linearGradient>
<path fill="url(#SVGID_10_)" d="M207.272,100.724"/>
</svg>
